<?xml version="1.0" encoding="UTF-8" standalone="no"?>
<!-- Created with Inkscape (http://www.inkscape.org/) -->

<svg
   xmlns:dc="http://purl.org/dc/elements/1.1/"
   xmlns:cc="http://creativecommons.org/ns#"
   xmlns:rdf="http://www.w3.org/1999/02/22-rdf-syntax-ns#"
   xmlns:svg="http://www.w3.org/2000/svg"
   xmlns="http://www.w3.org/2000/svg"
   xmlns:sodipodi="http://sodipodi.sourceforge.net/DTD/sodipodi-0.dtd"
   xmlns:inkscape="http://www.inkscape.org/namespaces/inkscape"
   width="512"
   height="512"
   viewBox="0 0 512.00001 512.00001"
   id="svg2"
   version="1.1"
   inkscape:version="0.91 r13725"
   sodipodi:docname="logo.svg"
   inkscape:export-filename="icon.png"
   inkscape:export-xdpi="90"
   inkscape:export-ydpi="90">
  <defs
     id="defs4" />
  <sodipodi:namedview
     id="base"
     pagecolor="#ffffff"
     bordercolor="#666666"
     borderopacity="1.0"
     inkscape:pageopacity="0.0"
     inkscape:pageshadow="2"
     inkscape:zoom="0.98994949"
     inkscape:cx="31.497393"
     inkscape:cy="252.95108"
     inkscape:document-units="px"
     inkscape:current-layer="layer1"
     showgrid="false"
     units="px"
     borderlayer="true"
     inkscape:showpageshadow="false"
     inkscape:window-width="1920"
     inkscape:window-height="1080"
     inkscape:window-x="0"
     inkscape:window-y="0"
     inkscape:window-maximized="1" />
  <metadata
     id="metadata7">
    <rdf:RDF>
      <cc:Work
         rdf:about="">
        <dc:format>image/svg+xml</dc:format>
        <dc:type
           rdf:resource="http://purl.org/dc/dcmitype/StillImage" />
        <dc:title />
      </cc:Work>
    </rdf:RDF>
  </metadata>
  <g
     inkscape:label="Layer 1"
     inkscape:groupmode="layer"
     id="layer1"
     transform="translate(0,-540.36216)">
    <g
       id="g4144">
      <path
         sodipodi:nodetypes="sccsscssssscs"
         style="fill:#353535;fill-opacity:1;stroke:#ffffff;stroke-width:20;stroke-miterlimit:4;stroke-dasharray:none;stroke-opacity:1"
         d="M 80.864579,951.89849 C 44.11265,905.2179 16.088759,863.44126 18.589157,859.06085 147.85145,818.23733 216.08506,805.24554 306.9255,712.60519 l -30.63463,-18.93357 c -16.84901,-10.41324 -30.63464,-21.72665 -30.63464,-25.1408 0,-10.20528 182.50983,-110.337 200.66494,-115.7837 9.20006,-2.32053 22.51229,-16.16551 30.73234,93.34016 3.52269,46.92852 9.21048,97.57966 11.30837,112.95338 7.7744,56.97102 12.59525,54.4772 -29.34605,32.23521 -13.48526,-7.1518 -34.75824,-18.2681 -36.85826,-14.76223 -2.10002,3.50587 -58.70037,124.35032 -120.38318,172.80903 -98.81537,77.62953 -136.35533,100.18673 -150.19228,90.24733 -2.14281,-1.5382 -33.96551,-40.99093 -70.717531,-87.67151 z"
         id="path4250"
         inkscape:connector-curvature="0" />
      <path
         inkscape:connector-curvature="0"
         id="path4136"
         d="M 80.864579,951.89849 C 44.11265,905.2179 16.088759,863.44126 18.589157,859.06085 147.85145,818.23733 216.08506,805.24554 306.9255,712.60519 l -30.63463,-18.93357 c -16.84901,-10.41324 -30.63464,-21.72665 -30.63464,-25.1408 0,-10.20528 182.50983,-110.337 200.66494,-115.7837 9.20006,-2.32053 22.51229,-16.16551 30.73234,93.34016 3.52269,46.92852 9.21048,97.57966 11.30837,112.95338 7.7744,56.97102 12.59525,54.4772 -29.34605,32.23521 -13.48526,-7.1518 -34.75824,-18.2681 -36.85826,-14.76223 -2.10002,3.50587 -58.70037,124.35032 -120.38318,172.80903 -98.81537,77.62953 -136.35533,100.18673 -150.19228,90.24733 -2.14281,-1.5382 -33.96551,-40.99093 -70.717531,-87.67151 z"
         style="fill:#353535;fill-opacity:1;stroke:none;stroke-width:10;stroke-miterlimit:4;stroke-dasharray:none;stroke-opacity:1"
         sodipodi:nodetypes="sccsscssssscs" />
    </g>
  </g>
</svg>
